<?xml version="1.0" encoding="UTF-8" standalone="no"?>
<!DOCTYPE svg PUBLIC "-//W3C//DTD SVG 1.1//EN" "http://www.w3.org/Graphics/SVG/1.1/DTD/svg11.dtd">
<svg version="1.1" xmlns="http://www.w3.org/2000/svg" xmlns:xlink="http://www.w3.org/1999/xlink" preserveAspectRatio="xMidYMid meet" viewBox="0 0 612 719" width="612" height="719"><defs><path d="M589.31 0L589.31 719L330.34 719L330.34 0L589.31 0Z" id="b1zlhU02F"></path><path d="M286.91 719C481.7 629.77 589.91 580.2 611.56 570.29C611.75 334.45 611.67 216.87 611.33 217.55C610.98 218.22 407.09 330.47 -0.34 554.31C-0.32 565.29 -0.25 620.19 -0.11 719L286.91 719Z" id="a1loiULDfV"></path><linearGradient id="gradientkMb4mhIOk" gradientUnits="userSpaceOnUse" x1="305.66" y1="217.54" x2="305.66" y2="719"><stop style="stop-color: #a21cce;stop-opacity: 1" offset="0%"></stop><stop style="stop-color: #010000;stop-opacity: 1" offset="100%"></stop></linearGradient><path d="M286.91 719C481.7 629.77 589.91 580.2 611.56 570.29C611.75 334.45 611.67 216.87 611.33 217.55C610.98 218.22 407.09 330.47 -0.34 554.31C-0.32 565.29 -0.25 620.19 -0.11 719L286.91 719Z" id="a1Gf94W8Dj"></path><path d="M535.6 0L535.6 719L473.91 719L473.91 0L535.6 0Z" id="kQXgRCC9"></path></defs><g><g><g><use xlink:href="#b1zlhU02F" opacity="1" fill="#041062" fill-opacity="1"></use><g><use xlink:href="#b1zlhU02F" opacity="1" fill-opacity="0" stroke="#000000" stroke-width="1" stroke-opacity="0"></use></g></g><g><use xlink:href="#a1loiULDfV" opacity="1" fill="url(#gradientkMb4mhIOk)"></use><g><use xlink:href="#a1loiULDfV" opacity="1" fill-opacity="0" stroke="#000000" stroke-width="1" stroke-opacity="0"></use></g></g><g><use xlink:href="#a1Gf94W8Dj" opacity="1" fill="#000000" fill-opacity="0"></use><g><use xlink:href="#a1Gf94W8Dj" opacity="1" fill-opacity="0" stroke="#000000" stroke-width="1" stroke-opacity="1"></use></g></g><g><use xlink:href="#kQXgRCC9" opacity="1" fill="#0b2dd7" fill-opacity="1"></use><g><use xlink:href="#kQXgRCC9" opacity="1" fill-opacity="0" stroke="#000000" stroke-width="1" stroke-opacity="0"></use></g></g></g></g></svg>