<?xml version="1.0" encoding="UTF-8" standalone="no"?>
<!DOCTYPE svg PUBLIC "-//W3C//DTD SVG 1.1//EN" "http://www.w3.org/Graphics/SVG/1.1/DTD/svg11.dtd">
<svg version="1.1" xmlns="http://www.w3.org/2000/svg" xmlns:xlink="http://www.w3.org/1999/xlink" preserveAspectRatio="xMidYMid meet" viewBox="0 0 612 792" width="612" height="792"><defs><path d="M0 792L419.09 792L332.42 727.56L0 727.56L0 792Z" id="bM6aL9Fq9"></path><path d="M0 792L369.09 792L253.78 697.97L0 697.97L0 792Z" id="a2v9LESmgT"></path><path d="" id="a2GdwkYkat"></path><path d="M0 727.56L289.49 727.56L254.8 697.97L0 697.97L0 727.56Z" id="fP7NHfhmD"></path><path d="M0 0L612 0L612 792L459.9 792L374.19 727.56L344.6 727.56L0 409.72L0 0Z" id="b1r4JjoA4l"></path><path d="M612 792L543.63 792L353.78 599.88L612 594.1L612 792Z" id="c17Kytfw4I"></path><path d="M452.76 0L205.82 263.33L0 266.39L0 241.9L228.27 0L452.76 0Z" id="b5Sfa8qcwI"></path><path d="M297.39 0L131.12 174.79L122.9 171.73L285.08 0L297.39 0Z" id="c1kTHdLwA"></path><path d="M333.87 0L167.59 174.79L159.38 171.73L321.55 0L333.87 0Z" id="cdcU21oDO"></path><path d="M263.46 0L97.18 174.79L88.97 171.73L251.14 0L263.46 0Z" id="auNcjLFp4"></path><path d="M265.66 0L425.21 140.09L269.07 140.09L122.9 0L265.66 0Z" id="d5KGOAroPq"></path><path d="M172.15 0L324.19 140.09L269.09 140.09L122.9 0L172.15 0Z" id="cKPUwHhFW"></path><path d="" id="a4MsSQxejm"></path><path d="M0 177.31L146.64 23.89L154.8 29.83L0 189.19L0 177.31Z" id="c2e4c6865"></path><path d="M0 146.98L124.41 21.81L131.33 26.65L0 156.67L0 146.98Z" id="axh4KQdGH"></path><path d="M0 118.54L98.31 19.77L103.78 23.59L0 126.19L0 118.54Z" id="c5sFYMC4wN"></path><path d="M0 94.18L73.32 21.81L77.4 24.61L0 99.79L0 94.18Z" id="eKUqpppvo"></path></defs><g><g><g><g><filter id="shadow902860" x="-52" y="675.56" width="567.09" height="169.44" filterUnits="userSpaceOnUse" primitiveUnits="userSpaceOnUse"><feFlood></feFlood><feComposite in2="SourceAlpha" operator="in"></feComposite><feGaussianBlur stdDeviation="1"></feGaussianBlur><feOffset dx="44" dy="1" result="afterOffset"></feOffset><feFlood flood-color="#a09a9a" flood-opacity="0.5"></feFlood><feComposite in2="afterOffset" operator="in"></feComposite><feMorphology operator="dilate" radius="1"></feMorphology><feComposite in2="SourceAlpha" operator="out"></feComposite></filter><path d="M0 792L419.09 792L332.42 727.56L0 727.56L0 792Z" id="bxNKwsdnH" fill="white" fill-opacity="1" filter="url(#shadow902860)"></path></g><use xlink:href="#bM6aL9Fq9" opacity="1" fill="#b3b3b3" fill-opacity="1"></use><g><use xlink:href="#bM6aL9Fq9" opacity="1" fill-opacity="0" stroke="#b3aeae" stroke-width="1" stroke-opacity="1"></use></g></g><g><use xlink:href="#a2v9LESmgT" opacity="1" fill="#1e987c" fill-opacity="1"></use><g><use xlink:href="#a2v9LESmgT" opacity="1" fill-opacity="0" stroke="#5bcbb2" stroke-width="1" stroke-opacity="1"></use></g></g><g><g><use xlink:href="#a2GdwkYkat" opacity="1" fill-opacity="0" stroke="#404341" stroke-width="1" stroke-opacity="1"></use></g></g><g><use xlink:href="#fP7NHfhmD" opacity="1" fill="#38ad93" fill-opacity="1"></use><g><use xlink:href="#fP7NHfhmD" opacity="1" fill-opacity="0" stroke="#4eb697" stroke-width="1" stroke-opacity="1"></use></g></g><g><use xlink:href="#b1r4JjoA4l" opacity="1" fill="#d6d4d4" fill-opacity="1"></use><g><use xlink:href="#b1r4JjoA4l" opacity="1" fill-opacity="0" stroke="#bfc4c1" stroke-width="1" stroke-opacity="1"></use></g></g><g><g><filter id="shadow10734690" x="305.78" y="546.1" width="360.22" height="333.9" filterUnits="userSpaceOnUse" primitiveUnits="userSpaceOnUse"><feFlood></feFlood><feComposite in2="SourceAlpha" operator="in"></feComposite><feGaussianBlur stdDeviation="1"></feGaussianBlur><feOffset dx="6" dy="40" result="afterOffset"></feOffset><feFlood flood-color="#656867" flood-opacity="0.5"></feFlood><feComposite in2="afterOffset" operator="in"></feComposite><feMorphology operator="dilate" radius="1"></feMorphology><feComposite in2="SourceAlpha" operator="out"></feComposite></filter><path d="M612 792L543.63 792L353.78 599.88L612 594.1L612 792Z" id="a9MkaR2g7" fill="white" fill-opacity="1" filter="url(#shadow10734690)"></path></g><use xlink:href="#c17Kytfw4I" opacity="1" fill="#1e987c" fill-opacity="1"></use><g><use xlink:href="#c17Kytfw4I" opacity="1" fill-opacity="0" stroke="#1b8970" stroke-width="1" stroke-opacity="1"></use></g><g><filter id="shadow279720" x="264.78" y="505.1" width="452.22" height="382.9" filterUnits="userSpaceOnUse" primitiveUnits="userSpaceOnUse"><feFlood></feFlood><feComposite in2="SourceAlpha" operator="out"></feComposite><feGaussianBlur stdDeviation="5.2"></feGaussianBlur><feOffset dx="16" dy="7" result="afterOffset"></feOffset><feFlood flood-color="#156d56" flood-opacity="0.8"></feFlood><feComposite in2="afterOffset" operator="in"></feComposite><feMorphology operator="dilate" radius="14"></feMorphology><feComposite in2="SourceAlpha" operator="in"></feComposite></filter><path d="M612 792L543.63 792L353.78 599.88L612 594.1L612 792Z" id="biJA7wrcZ" fill="white" fill-opacity="1" filter="url(#shadow279720)"></path></g></g><g><g><filter id="shadow10169094" x="-43" y="-43" width="553.76" height="366.39" filterUnits="userSpaceOnUse" primitiveUnits="userSpaceOnUse"><feFlood></feFlood><feComposite in2="SourceAlpha" operator="in"></feComposite><feGaussianBlur stdDeviation="3.16"></feGaussianBlur><feOffset dx="15" dy="14" result="afterOffset"></feOffset><feFlood flood-color="#a79c9c" flood-opacity="0.5"></feFlood><feComposite in2="afterOffset" operator="in"></feComposite><feMorphology operator="dilate" radius="3"></feMorphology><feComposite in2="SourceAlpha" operator="out"></feComposite></filter><path d="M452.76 0L205.82 263.33L0 266.39L0 241.9L228.27 0L452.76 0Z" id="eylPdpF8t" fill="white" fill-opacity="1" filter="url(#shadow10169094)"></path></g><use xlink:href="#b5Sfa8qcwI" opacity="1" fill="#208b79" fill-opacity="1"></use><g><use xlink:href="#b5Sfa8qcwI" opacity="1" fill-opacity="0" stroke="#2ead90" stroke-width="1" stroke-opacity="1"></use></g></g><g><use xlink:href="#c1kTHdLwA" opacity="1" fill="#b1b6b5" fill-opacity="1"></use><g><use xlink:href="#c1kTHdLwA" opacity="1" fill-opacity="0" stroke="#939897" stroke-width="1" stroke-opacity="1"></use></g></g><g><use xlink:href="#cdcU21oDO" opacity="1" fill="#b1b6b5" fill-opacity="1"></use><g><use xlink:href="#cdcU21oDO" opacity="1" fill-opacity="0" stroke="#939897" stroke-width="1" stroke-opacity="1"></use></g></g><g><use xlink:href="#auNcjLFp4" opacity="1" fill="#b1b6b5" fill-opacity="1"></use><g><use xlink:href="#auNcjLFp4" opacity="1" fill-opacity="0" stroke="#939897" stroke-width="1" stroke-opacity="1"></use></g></g><g><use xlink:href="#d5KGOAroPq" opacity="1" fill="#117a69" fill-opacity="1"></use><g><use xlink:href="#d5KGOAroPq" opacity="1" fill-opacity="0" stroke="#178068" stroke-width="1" stroke-opacity="1"></use></g></g><g><use xlink:href="#cKPUwHhFW" opacity="1" fill="#19aa92" fill-opacity="1"></use><g><use xlink:href="#cKPUwHhFW" opacity="1" fill-opacity="0" stroke="#2ba68a" stroke-width="1" stroke-opacity="1"></use></g></g><g><g><use xlink:href="#a4MsSQxejm" opacity="1" fill-opacity="0" stroke="#28927a" stroke-width="1" stroke-opacity="1"></use></g></g><g><use xlink:href="#c2e4c6865" opacity="1" fill="#948e8e" fill-opacity="1"></use><g><use xlink:href="#c2e4c6865" opacity="1" fill-opacity="0" stroke="#979797" stroke-width="1" stroke-opacity="1"></use></g></g><g><use xlink:href="#axh4KQdGH" opacity="1" fill="#948e8e" fill-opacity="1"></use><g><use xlink:href="#axh4KQdGH" opacity="1" fill-opacity="0" stroke="#979797" stroke-width="1" stroke-opacity="1"></use></g></g><g><use xlink:href="#c5sFYMC4wN" opacity="1" fill="#948e8e" fill-opacity="1"></use><g><use xlink:href="#c5sFYMC4wN" opacity="1" fill-opacity="0" stroke="#979797" stroke-width="1" stroke-opacity="1"></use></g></g><g><use xlink:href="#eKUqpppvo" opacity="1" fill="#948e8e" fill-opacity="1"></use><g><use xlink:href="#eKUqpppvo" opacity="1" fill-opacity="0" stroke="#979797" stroke-width="1" stroke-opacity="1"></use></g></g></g></g></svg>