<?xml version="1.0" encoding="iso-8859-1"?>
<!-- Generator: Adobe Illustrator 19.0.0, SVG Export Plug-In . SVG Version: 6.00 Build 0)  -->
<svg version="1.1" id="Capa_1" xmlns="http://www.w3.org/2000/svg" xmlns:xlink="http://www.w3.org/1999/xlink" x="0px" y="0px"
	 viewBox="0 0 468.299 468.299" style="enable-background:new 0 0 468.299 468.299;" xml:space="preserve">
<path style="fill:#44C4A1;" d="M208.093,190.073l-29.879-1.763v88.153l29.879,1.763c101.342,0,186.173,51.889,240.397,137.504
	V52.569C394.266,138.184,309.434,190.073,208.093,190.073z"/>
<path style="fill:#2F4859;" d="M178.214,192.727h-39.586c-5.517,0-10.737-2.408-14.354-6.574
	c-15.633-18.002-40.194-28.04-66.802-23.186c-27.976,5.105-50.667,27.467-56.09,55.384c-8.807,45.334,25.675,85.012,69.425,85.012
	c21.344,0,40.475-9.451,53.455-24.39c3.623-4.17,8.844-6.588,14.367-6.588h39.585V192.727z"/>
<ellipse style="fill:#3A556A;" cx="448.5" cy="234.149" rx="19.799" ry="181.573"/>
<path style="fill:#EBF0F3;" d="M185.195,185.479h-24.736c-3.796,0-6.873,3.077-6.873,6.873v80.408c0,3.796,3.077,6.873,6.873,6.873
	h24.736c3.796,0,6.873-3.077,6.873-6.873v-80.408C192.068,188.556,188.991,185.479,185.195,185.479z"/>
<g>
	<path style="fill:#64798A;" d="M66.025,178.753c-6.751,0-12.224,1.824-12.224,4.074c0,2.251,5.473,4.075,12.224,4.075
		c6.751,0,12.224-1.824,12.224-4.075C78.25,180.577,72.777,178.753,66.025,178.753z"/>
	<path style="fill:#64798A;" d="M21.867,240.806c-6.751,0-12.224,1.824-12.224,4.074c0,2.251,5.473,4.075,12.224,4.075
		c6.751,0,12.224-1.824,12.224-4.075C34.091,242.63,28.618,240.806,21.867,240.806z"/>
	<path style="fill:#64798A;" d="M58.958,213.676c-7.63,0-13.815,2.062-13.815,4.605c0,2.544,6.185,4.605,13.815,4.605
		c7.63,0,13.816-2.062,13.816-4.605C72.773,215.737,66.588,213.676,58.958,213.676z"/>
</g>
<g>
</g>
<g>
</g>
<g>
</g>
<g>
</g>
<g>
</g>
<g>
</g>
<g>
</g>
<g>
</g>
<g>
</g>
<g>
</g>
<g>
</g>
<g>
</g>
<g>
</g>
<g>
</g>
<g>
</g>
</svg>
