<svg height="512" viewBox="0 0 58 58" width="512" xmlns="http://www.w3.org/2000/svg"><g id="Page-1" fill="none" fill-rule="evenodd"><g id="008---Sketchpad" fill-rule="nonzero"><path id="Shape" d="m57.414 8.958-7.071-7.071c-.7809997-.78076388-2.0470003-.78076388-2.828 0l-2.829 2.828 3.314 6.285 6.586 3.615 2.828-2.829c.7807639-.7809997.7807639-2.0470003 0-2.828z" fill="#fb7b76"/><path id="Shape" d="m0 4v52c.0032948 1.1032019.89679813 1.9967052 2 2h40c1.1032019-.0032948 1.9967052-.8967981 2-2v-52z" fill="#f29c1f"/><path id="Shape" d="m8 0h-2c-1.10320187.0032948-1.9967052.89679813-2 2v42c0 4.418278 3.581722 8 8 8h32v-47z" fill="#f0c419"/><path id="Shape" d="m12 52h38c4.418278 0 8-3.581722 8-8v-2c-.0032948-1.1032019-.8967981-1.9967052-2-2h-34c-1.1032019.0032948-1.9967052.8967981-2 2v2c0 4.418278-3.581722 8-8 8z" fill="#f3d55b"/><g fill="#f9eab0"><path id="Shape" d="m54 45h-2c-.5522847 0-1-.4477153-1-1s.4477153-1 1-1h2c.5522847 0 1 .4477153 1 1s-.4477153 1-1 1z"/><path id="Shape" d="m48 45h-18c-.5522847 0-1-.4477153-1-1s.4477153-1 1-1h18c.5522847 0 1 .4477153 1 1s-.4477153 1-1 1z"/><path id="Shape" d="m26 45h-2c-.5522847 0-1-.4477153-1-1s.4477153-1 1-1h2c.5522847 0 1 .4477153 1 1s-.4477153 1-1 1z"/></g><path id="Shape" d="m44 2v2.03l-3.13 1.97h-36.87v-4c.0032948-1.10320187.89679813-1.9967052 2-2h36c1.1032019.0032948 1.9967052.89679813 2 2z" fill="#e64c3c"/><path id="Shape" d="m6 0c-1.10320187.0032948-1.9967052.89679813-2 2v4h-4v-4c.0032948-1.10320187.89679813-1.9967052 2-2z" fill="#c03a2b"/><path id="Shape" d="m26.31 35h-8.31c-.5522847 0-1-.4477153-1-1s.4477153-1 1-1h8.31c.5522847 0 1 .4477153 1 1s-.4477153 1-1 1z" fill="#35495e"/><path id="Shape" d="m14 35h-2c-.5522847 0-1-.4477153-1-1s.4477153-1 1-1h2c.5522847 0 1 .4477153 1 1s-.4477153 1-1 1z" fill="#35495e"/><path id="Shape" d="m51.76 17.44-13.73 13.73c-.1309845.129489-.2790149.2405118-.44.33-6.59-1.5-9.59-4.5-9.79-9.79.0894882-.1609851.200511-.3090155.33-.44l13.73-13.73 6.14 3.46z" fill="#3b97d3"/><path id="Rectangle-path" d="m28.232 18.4h23.335v2h-23.335z" fill="#2980ba" transform="matrix(.707 -.707 .707 .707 -2.031 33.896)"/><path id="Shape" d="m31.39 32.93-4.87 1.05c-.3347501.0737969-.6839721-.0290097-.9253435-.2724094-.2413713-.2433997-.341252-.5934698-.2646565-.9275906l1.05-4.87c.99242.6561183 1.9140285 1.4135129 2.75 2.26.8497933.8365993 1.6074553 1.7618856 2.26 2.76z" fill="#3f5c6c"/><path id="Shape" d="m37.59 31.5c-.1708738.0990661-.3565838.1699735-.55.21l-5.65 1.22c-.6525447-.9981144-1.4102067-1.9234007-2.26-2.76-.8359715-.8464871-1.75758-1.6038817-2.75-2.26l1.21-5.65c.0400265-.1934162.1109339-.3791262.21-.55.62.2 4.38 1.52 4.87 4.93 3.4.48 4.72 4.24 4.92 4.86z" fill="#fdd7ad"/><rect id="Rectangle-path" fill="#95a5a5" height="4" rx="1" transform="matrix(.707 .707 -.707 .707 21.958 -30.853)" width="18" x="39.222" y="9.079"/></g></g></svg>