<svg height="496pt" viewBox="0 0 496 496" width="496pt" xmlns="http://www.w3.org/2000/svg" xmlns:xlink="http://www.w3.org/1999/xlink"><linearGradient id="a" gradientUnits="userSpaceOnUse" x1="248" x2="248" y1="496" y2="0"><stop offset="0" stop-color="#9f2fff"/><stop offset="1" stop-color="#0bb1d3"/></linearGradient><path d="m198.832031 348.328125 14.207031 7.351563-45.511718 88-14.207032-7.351563zm297.167969-4.328125v16c0 39.695312-32.304688 72-72 72h-9.136719c-3.574219 13.761719-16 24-30.863281 24-.007812 0-.007812 0-.015625 0-.089844 22.070312-18.054687 40-40.144531 40h-191.679688c-22.089844 0-40.054687-17.929688-40.144531-40-.007813 0-.007813 0-.015625 0-14.863281 0-27.289062-10.238281-30.863281-24h-9.136719c-39.695312 0-72-32.304688-72-72v-16c0-31.273438 20.078125-57.878906 48-67.800781v-68.199219c0-82.761719 51.359375-156.96875 128.257812-186.550781 1.292969-12.023438 11.382813-21.449219 23.742188-21.449219h96c12.359375 0 22.449219 9.425781 23.742188 21.449219 76.898437 29.582031 128.257812 103.789062 128.257812 186.550781v68.199219c27.921875 9.921875 48 36.527343 48 67.800781zm-176-305.238281v17.238281c0 .128906-.039062.246094-.039062.375 58.511718 27.839844 96.039062 86.617188 96.039062 151.625v64h8c2.703125 0 5.367188.175781 8 .472656v-64.472656c0-73.976562-44.585938-140.542969-112-169.238281zm64 209.238281c5.855469 0 11.273438 1.695312 16 4.449219v-44.449219c0-58.375-33.457031-111.207031-85.726562-136.625-4.410157 5.234375-10.921876 8.625-18.273438 8.625h-96c-7.351562 0-13.863281-3.390625-18.273438-8.625-52.269531 25.417969-85.726562 78.25-85.726562 136.625v44.449219c4.726562-2.753907 10.144531-4.449219 16-4.449219 17.648438 0 32 14.351562 32 32v104.335938l73.535156-141.816407c5.921875-11.421875 17.59375-18.519531 30.464844-18.519531s24.542969 7.097656 30.464844 18.519531l73.535156 141.816407v-104.335938c0-17.648438 14.351562-32 32-32zm-192-192c0 4.40625 3.59375 8 8 8h96c4.40625 0 8-3.59375 8-8v-32c0-4.40625-3.59375-8-8-8h-96c-4.40625 0-8 3.59375-8 8zm-128 216.472656c2.632812-.296875 5.296875-.472656 8-.472656h8v-64c0-65.007812 37.527344-123.785156 96.039062-151.625 0-.128906-.039062-.246094-.039062-.375v-17.238281c-67.414062 28.695312-112 95.261719-112 169.238281zm8 143.527344h8v-128h-8c-30.878906 0-56 25.121094-56 56v16c0 22.28125 13.113281 41.511719 32 50.519531v-98.519531h16v103.359375c2.625.375 5.28125.640625 8 .640625zm40 24c1.199219 0 2.367188-.160156 3.519531-.414062.328125-.746094.617188-1.507813.984375-2.226563l6.929688-13.359375h-11.433594v-16h16v-16h-16v-16h16v-16h-16v-16h16v-16h-16v-16h16v-16h-16v-16h16c0-8.824219-7.175781-16-16-16s-16 7.175781-16 16v144c0 8.824219 7.175781 16 16 16zm256 15.839844c0-3.847656-.9375-7.695313-2.710938-11.121094l-101.023437-194.832031c-3.160156-6.09375-9.394531-9.886719-16.265625-9.886719s-13.105469 3.792969-16.265625 9.878906l-101.023437 194.839844c-1.773438 3.425781-2.710938 7.273438-2.710938 11.121094 0 13.320312 10.839844 24.160156 24.160156 24.160156h191.679688c13.320312 0 24.160156-10.839844 24.160156-24.160156zm32-175.839844c0-8.824219-7.175781-16-16-16s-16 7.175781-16 16h16v16h-16v16h16v16h-16v16h16v16h-16v16h16v16h-16v16h16v16h-11.433594l6.929688 13.351562c.367187.710938.65625 1.472657.976562 2.207032 1.152344.265625 2.328125.441406 3.527344.441406 8.824219 0 16-7.175781 16-16zm80 64c0-30.878906-25.121094-56-56-56h-8v128h8c2.71875 0 5.375-.265625 8-.640625v-103.359375h16v98.519531c18.886719-9.007812 32-28.238281 32-50.519531zm-256-312h-16v16h16zm64 0h-16v16h16zm-16 408c0 13.230469-10.769531 24-24 24s-24-10.769531-24-24 10.769531-24 24-24 24 10.769531 24 24zm-16 0c0-4.40625-3.59375-8-8-8s-8 3.59375-8 8 3.59375 8 8 8 8-3.59375 8-8zm16-128.761719c0 .777344-.03125 1.554688-.113281 2.320313l-7.125 71.28125c-.875 8.640625-8.074219 15.160156-16.761719 15.160156s-15.886719-6.519531-16.761719-15.167969l-7.125-71.28125c-.082031-.757812-.113281-1.535156-.113281-2.3125 0-12.8125 10.425781-23.238281 23.238281-23.238281h1.523438c12.8125 0 23.238281 10.425781 23.238281 23.238281zm-16.03125.722657c.03125-4.714844-3.214844-7.960938-7.207031-7.960938h-1.523438c-3.992187 0-7.238281 3.246094-7.238281 7.238281l7.167969 72c.089843.859375 1.585937.859375 1.671875 0zm0 0" fill="url(#a)"/></svg>